<?xml version="1.0" standalone="no"?>
<!DOCTYPE svg PUBLIC "-//W3C//DTD SVG 20010904//EN"
 "http://www.w3.org/TR/2001/REC-SVG-20010904/DTD/svg10.dtd">
<svg version="1.0" xmlns="http://www.w3.org/2000/svg"
 width="247.000000pt" height="101.000000pt" viewBox="0 0 247.000000 101.000000"
 preserveAspectRatio="xMidYMid meet">

<g transform="translate(0.000000,101.000000) scale(0.100000,-0.100000)"
fill="#000000" stroke="none">
<path d="M795 960 c-22 -11 -45 -19 -52 -20 -6 0 -28 -16 -49 -35 -34 -32 -36
-38 -32 -79 3 -24 15 -58 27 -74 l21 -30 -93 -6 c-119 -8 -115 -8 -230 0 -122
8 -150 -2 -181 -65 -13 -25 -58 -126 -101 -224 -73 -167 -77 -182 -72 -232 7
-64 19 -85 71 -119 31 -20 53 -26 97 -26 67 0 113 26 144 82 l20 36 37 -43
c65 -74 149 -95 234 -56 39 18 41 18 63 0 48 -39 188 -15 207 36 11 27 75 16
112 -19 33 -31 34 -31 143 -31 l111 0 33 37 34 36 15 -24 c32 -47 63 -55 213
-49 172 6 166 6 236 -1 46 -5 64 -2 90 14 32 18 34 18 67 1 28 -16 56 -18 164
-18 151 1 181 10 243 71 36 36 45 52 59 114 14 67 14 77 0 128 -9 30 -32 75
-51 100 -19 26 -35 57 -35 70 0 47 -87 140 -155 166 -17 6 -84 14 -150 16
-101 3 -126 1 -155 -13 -34 -17 -36 -17 -76 2 l-42 20 24 35 c50 72 56 148 12
171 -56 30 -238 40 -363 20 -65 -10 -73 -9 -111 11 -38 20 -45 21 -82 9 -33
-11 -47 -11 -71 -1 -38 15 -82 6 -115 -25 l-26 -24 -66 29 c-76 35 -113 37
-169 10z m167 -38 l77 -37 24 30 c24 30 24 30 137 31 107 1 115 0 137 -22 19
-19 28 -22 43 -14 10 5 40 10 67 10 26 0 57 7 67 15 26 20 120 20 140 0 9 -10
34 -15 70 -15 48 0 58 -3 72 -24 14 -23 14 -28 -6 -73 -11 -26 -34 -65 -50
-85 -17 -20 -30 -39 -30 -42 0 -3 18 -6 39 -6 27 0 48 -8 68 -24 l29 -24 22
23 c22 23 29 24 153 24 121 -1 134 -3 182 -28 60 -31 122 -111 113 -146 -4
-15 3 -30 24 -50 76 -73 92 -195 34 -256 -60 -63 -76 -68 -228 -68 -113 0
-144 3 -168 16 -15 10 -28 21 -28 25 0 15 -19 8 -44 -17 -21 -21 -35 -25 -80
-25 -35 0 -60 5 -69 15 -13 13 -19 13 -43 0 -19 -10 -64 -14 -155 -14 -123 0
-130 1 -158 25 -17 14 -33 34 -36 44 -7 24 -55 28 -55 6 0 -8 -12 -28 -26 -45
-26 -31 -27 -31 -124 -31 -97 0 -98 0 -124 31 -14 17 -26 34 -26 39 0 4 -13 3
-29 -3 -22 -8 -36 -8 -58 2 -20 9 -29 9 -31 1 -2 -6 -15 -24 -29 -40 -23 -28
-30 -30 -89 -30 -57 0 -65 3 -80 25 l-16 25 -44 -26 c-38 -23 -54 -26 -104
-22 -52 4 -65 9 -96 39 -20 19 -44 51 -55 71 -11 21 -24 38 -30 38 -5 0 -21
-24 -34 -54 -33 -74 -63 -96 -133 -96 -64 0 -118 29 -128 68 -5 16 21 86 86
235 51 117 99 220 108 230 15 17 29 18 132 13 63 -3 122 -5 130 -5 8 0 70 3
138 5 l122 5 -34 42 c-64 78 -70 129 -19 162 34 23 133 64 153 64 8 0 50 -17
92 -37z"/>
<path d="M826 911 c-3 -4 -19 -11 -35 -14 -16 -3 -41 -16 -56 -29 -23 -21 -25
-26 -16 -51 6 -16 31 -55 56 -87 25 -32 45 -61 45 -64 0 -3 -9 -6 -19 -6 -10
0 -22 -8 -26 -17 -6 -17 -7 -17 -16 0 -9 14 -25 17 -114 17 -94 0 -104 -2
-110 -19 -6 -20 -6 -20 -39 0 -29 17 -49 19 -132 17 l-99 -3 -92 -210 c-51
-116 -93 -215 -93 -221 0 -6 12 -21 26 -35 20 -19 36 -24 75 -23 60 1 80 17
109 89 20 50 24 53 61 57 38 3 40 2 49 -33 6 -22 26 -51 50 -73 35 -32 46 -36
93 -36 54 0 77 10 131 59 16 15 27 20 24 11 -8 -22 19 -68 43 -75 31 -10 84 3
104 25 9 10 20 40 22 65 3 25 10 45 14 45 5 0 9 -6 9 -13 0 -20 43 -57 67 -57
11 0 35 14 52 32 l31 32 0 -46 c0 -68 22 -83 120 -83 87 0 113 14 124 66 5 27
9 29 50 29 39 0 45 -3 56 -29 20 -50 46 -66 103 -64 29 1 83 2 120 2 69 0 107
14 133 50 10 12 13 10 18 -16 13 -57 99 -56 138 1 12 17 23 33 25 35 2 3 21
-13 43 -34 38 -37 42 -39 102 -38 35 1 97 1 140 1 l76 1 46 44 c42 40 46 48
46 91 0 57 -26 112 -75 154 -31 28 -34 34 -23 51 10 16 8 25 -15 58 -39 56
-89 86 -151 91 -29 2 -63 -1 -74 -7 -14 -7 -23 -8 -27 -1 -7 11 -104 13 -121
2 -6 -4 -20 -25 -32 -47 l-20 -40 -12 30 c-19 50 -39 65 -86 65 -28 0 -46 -5
-52 -15 -7 -14 -12 -14 -34 -2 l-27 13 61 74 c61 76 78 106 78 141 0 17 -7 19
-65 19 -37 0 -65 4 -65 10 0 6 -27 10 -60 10 -33 0 -60 -4 -60 -10 0 -5 -28
-10 -62 -12 l-63 -3 -17 -55 c-9 -30 -25 -82 -34 -115 -23 -76 -29 -51 -10 39
17 81 7 128 -30 153 -21 13 -30 14 -45 5 -10 -7 -35 -12 -54 -12 -19 0 -44 5
-54 12 -27 16 -66 -11 -81 -56 -9 -30 -8 -48 10 -112 11 -42 19 -79 16 -81 -2
-2 -21 41 -43 97 -37 99 -39 102 -83 122 -25 11 -53 25 -62 29 -23 12 -75 12
-82 0z m64 -21 c0 -5 -11 -10 -25 -10 -14 0 -25 5 -25 10 0 6 11 10 25 10 14
0 25 -4 25 -10z m-59 -37 c6 -17 4 -20 -11 -16 -10 3 -28 -1 -41 -7 -22 -12
-22 -13 -4 -26 22 -16 75 -19 75 -4 0 6 8 10 18 10 15 0 15 2 2 11 -13 9 -13
10 0 6 8 -2 14 -11 12 -21 -4 -23 45 -21 82 3 l29 19 -36 7 c-20 4 -41 4 -47
0 -9 -5 -10 -1 -5 16 10 33 11 33 45 19 49 -20 55 -44 22 -81 -24 -27 -37 -33
-83 -37 -63 -5 -121 15 -139 47 -8 16 -8 21 1 21 8 0 8 4 -1 15 -10 13 -7 17
21 30 41 17 50 15 60 -12z m59 1 c0 -2 -9 -4 -21 -4 -11 0 -18 4 -14 10 5 8
35 3 35 -6z m507 -134 c-25 -66 -23 -64 -35 -56 -6 4 -4 26 5 58 23 85 21 81
37 66 11 -11 10 -21 -7 -68z m-207 50 c13 -24 10 -24 -35 -6 -43 18 -44 26 -5
26 19 0 33 -7 40 -20z m80 6 c-8 -8 -25 -17 -37 -20 -18 -6 -20 -4 -16 14 4
15 14 20 36 20 27 0 29 -2 17 -14z m-221 -53 c17 -44 19 -58 9 -65 -21 -13
-24 -10 -45 40 -15 36 -17 51 -9 65 6 9 14 17 17 17 3 0 16 -26 28 -57z m544
50 c-7 -2 -19 -2 -25 0 -7 3 -2 5 12 5 14 0 19 -2 13 -5z m-435 -48 c36 -15
42 -23 44 -49 l1 -31 4 30 c3 25 12 34 51 52 25 12 48 20 50 18 11 -11 -11
-74 -27 -80 -12 -3 -27 -29 -40 -68 -41 -115 -53 -147 -56 -147 -1 0 -1 37 2
83 5 96 -8 130 -50 135 -17 2 -27 9 -27 20 0 9 -3 28 -7 41 -3 13 -2 22 3 19
5 -2 28 -13 52 -23z m399 -16 c17 -9 26 -9 38 1 22 18 26 9 7 -15 -10 -11 -37
-27 -62 -35 -48 -16 -90 -65 -90 -106 0 -39 -13 -27 -42 36 l-26 59 26 49 25
48 51 -13 c28 -7 61 -18 73 -24z m-559 -129 l-32 -61 -14 38 c-8 21 -19 50
-24 66 -6 15 -14 27 -19 27 -10 0 -49 41 -49 52 0 4 10 8 23 9 12 0 38 6 57
12 l35 13 28 -47 28 -47 -33 -62z m-148 98 c0 -14 -19 1 -31 25 -12 22 -12 22
10 3 11 -11 21 -23 21 -28z m781 9 l-24 -22 19 27 c10 14 21 24 23 22 3 -3 -6
-15 -18 -27z m-1141 -82 c18 -17 21 -28 18 -67 -9 -86 -78 -146 -180 -156
l-48 -5 11 32 c12 34 35 51 70 51 30 0 69 38 69 67 0 25 -31 43 -74 43 -26 0
-33 -14 -108 -210 -22 -58 -44 -111 -50 -117 -6 -7 -26 -13 -45 -13 -24 0 -34
4 -30 13 33 79 160 374 164 380 3 5 45 7 93 5 71 -2 92 -7 110 -23z m236 8
c-3 -10 -17 -70 -31 -133 -41 -185 -88 -250 -181 -250 -34 0 -47 5 -63 26 -21
26 -27 67 -15 98 4 10 18 16 40 16 29 0 34 -3 34 -24 0 -30 26 -41 55 -22 17
11 28 38 45 108 12 51 24 101 27 111 4 14 -3 17 -41 17 -48 0 -51 4 -40 48 6
21 12 22 91 22 76 0 84 -2 79 -17z m162 5 c10 -13 42 -124 42 -147 0 -6 -11
-11 -25 -11 -17 0 -29 8 -37 25 -12 27 -28 24 -28 -6 0 -14 -7 -19 -30 -19
-16 0 -30 3 -30 8 0 14 21 137 25 150 2 6 20 12 38 12 19 0 39 -6 45 -12z
m257 2 c3 -5 3 -44 -1 -85 -7 -75 -7 -76 -33 -73 -18 2 -27 10 -29 26 l-3 23
-20 -26 c-12 -15 -31 -25 -45 -25 -22 0 -24 3 -18 23 8 28 53 118 66 135 12
14 74 16 83 2z m236 -65 c35 -87 35 -95 4 -95 -21 0 -29 8 -44 43 l-18 42 -13
-42 c-11 -37 -17 -43 -42 -43 -15 0 -28 3 -28 6 0 10 41 148 47 157 3 4 18 7
35 5 27 -3 33 -10 59 -73z m253 61 c34 -14 66 -50 66 -73 0 -20 -45 -15 -65 7
-27 29 -70 23 -70 -9 0 -19 10 -30 45 -47 l45 -23 -61 -1 c-67 0 -87 13 -99
63 -12 46 32 94 88 96 10 1 33 -5 51 -13z m139 1 c15 -10 47 -100 47 -133 0
-7 -11 -14 -25 -16 -23 -5 -26 0 -40 44 -25 87 -29 118 -13 118 8 0 22 -6 31
-13z m212 -19 c-4 -13 -16 -44 -27 -69 -16 -39 -25 -48 -51 -52 -18 -2 -34 -3
-36 -1 -4 3 27 118 36 137 2 4 22 7 44 7 37 0 40 -2 34 -22z m184 8 c38 -20
57 -44 44 -57 -7 -7 -22 -3 -45 11 -20 11 -43 18 -52 14 -21 -8 -21 -50 0 -62
20 -11 10 -32 -16 -32 -24 0 -70 55 -70 85 0 13 7 31 16 39 19 20 86 21 123 2z"/>
</g>
</svg>
